HIERARCHY
ROOT Hips
{
	OFFSET 0.00000 0.00000 0.00000
	CHANNELS 6 Xposition Yposition Zposition Zrotation Yrotation Xrotation 
	JOINT LHipJoint
	{
		OFFSET 0 0 0
		CHANNELS 3 Zrotation Yrotation Xrotation
		JOINT LeftHip
		{
			OFFSET 1.75344 -1.53157 0.77399
			CHANNELS 3 Zrotation Yrotation Xrotation
			JOINT LeftKnee
			{
				OFFSET 2.25415 -6.19323 0.00000
				CHANNELS 3 Zrotation Yrotation Xrotation
				JOINT LeftAnkle
				{
					OFFSET 2.30342 -6.32861 0.00000
					CHANNELS 3 Zrotation Yrotation Xrotation
					JOINT LeftToe
					{
						OFFSET 0.10958 -0.30108 1.49206
						CHANNELS 3 Zrotation Yrotation Xrotation
						End Site
						{
							OFFSET 0.00000 -0.00000 0.77783
						}
					}
				}
			}
		}
	}
	JOINT RHipJoint
	{
		OFFSET 0 0 0
		CHANNELS 3 Zrotation Yrotation Xrotation
		JOINT RightHip
		{
			OFFSET -1.81912 -1.53156 0.77399
			CHANNELS 3 Zrotation Yrotation Xrotation
			JOINT RightKnee
			{
				OFFSET -2.22882 -6.12365 0.00000
				CHANNELS 3 Zrotation Yrotation Xrotation
				JOINT RightAnkle
				{
					OFFSET -2.21943 -6.09785 0.00000
					CHANNELS 3 Zrotation Yrotation Xrotation
					JOINT RightToe
					{
						OFFSET -0.18931 -0.52012 1.59379
						CHANNELS 3 Zrotation Yrotation Xrotation
						End Site
						{
							OFFSET -0.00000 -0.00000 0.84686
						}
					}
				}
			}
		}
	}
	JOINT lowerback
	{
		OFFSET 0 0 0
		CHANNELS 3 Zrotation Yrotation Xrotation
		JOINT Chest
		{
			OFFSET -0.00200 1.66634 -0.14248
			CHANNELS 3 Zrotation Yrotation Xrotation
			JOINT Chest2
			{
				OFFSET -0.00875 1.64542 0.09514
				CHANNELS 3 Zrotation Yrotation Xrotation
				JOINT lowerneck
				{
					OFFSET 0 0 0
					CHANNELS 3 Zrotation Yrotation Xrotation
					JOINT Neck
					{
						OFFSET 0.02257 1.59605 0.00839
						CHANNELS 3 Zrotation Yrotation Xrotation
						JOINT Head
						{
							OFFSET -0.10214 1.57530 -0.23335
							CHANNELS 3 Zrotation Yrotation Xrotation
							End Site
							{
								OFFSET -0.03588 1.60717 -0.08062
							}
						}
					}
				}
				JOINT LeftCollar
				{
					OFFSET 0 0 0
					CHANNELS 3 Zrotation Yrotation Xrotation
					JOINT LeftShoulder
					{
						OFFSET 2.54983 1.10186 0.40078
CHANNELS 3 Zrotation Xrotation Yrotation
						JOINT LeftElbow
						{
OFFSET 0 -4.288400 0.000000
CHANNELS 3 Zrotation Xrotation Yrotation
							JOINT LeftWrist
							{
OFFSET 0 -3.065520 -0.000000
CHANNELS 3 Zrotation Xrotation Yrotation
								JOINT lhand
								{
									OFFSET 0 0 0
CHANNELS 3 Zrotation Xrotation Yrotation
									JOINT LFingers
									{
OFFSET 0 -0.753040 0.000000
CHANNELS 3 Zrotation Xrotation Yrotation
										End Site
										{
OFFSET 0 -0.607120 0.000000
										}
									}
								}
								JOINT LThumb
								{
OFFSET 0 0.000000 0.000000
CHANNELS 3 Zrotation Xrotation Yrotation
									End Site
									{
OFFSET 0 -0.616390 0.616390
									}
								}
							}
						}
					}
				}
				JOINT RightCollar
				{
					OFFSET 0 0 0
					CHANNELS 3 Zrotation Yrotation Xrotation
					JOINT RightShoulder
					{
						OFFSET -2.60909 1.35448 0.21802
CHANNELS 3 Zrotation Xrotation Yrotation
						JOINT RightElbow
						{
OFFSET 0 -4.521720 -0.000000
CHANNELS 3 Zrotation Xrotation Yrotation
							JOINT RightWrist
							{
OFFSET 0 -2.891400 0.000000
CHANNELS 3 Zrotation Xrotation Yrotation
								JOINT rhand
								{
									OFFSET 0 0 0
CHANNELS 3 Zrotation Xrotation Yrotation
									JOINT RFingers
									{
OFFSET 0 -0.680540 0.000000
CHANNELS 3 Zrotation Xrotation Yrotation
										End Site
										{
OFFSET 0 -0.548670 0.000000
										}
									}
								}
								JOINT RThumb
								{
OFFSET 0 0.000000 0.000000
CHANNELS 3 Zrotation Xrotation Yrotation
									End Site
									{
OFFSET 0 -0.557050 0.557050
									}
								}
							}
						}
					}
				}
			}
		}
	}
}
MOTION
Frames: 10
Frame Time: 0.008333333333333333
8.026100 14.685100 42.221300 175.361000 -1.841500 170.600000 0.000000 0.000000 0.000000 -35.976400 -6.856000 1.570100 2.845100 10.439900 30.413300 2.347100 3.952600 -30.558100 0.590800 -4.921100 -13.683600 0.000000 0.000000 0.000000 14.041500 6.210600 -2.471100 -5.124300 -13.522400 41.357000 -2.603600 -7.756800 -33.971700 -0.867400 5.938600 -16.606300 8.260300 4.453300 2.447700 -2.205000 6.148500 -4.718900 -7.303500 2.578000 -5.214300 5.926200 16.129500 -4.165300 4.375300 17.323500 41.938400 2.786400 7.022000 15.670700 -0.000000 0.000000 0.000000 4.434100 20.830300 -18.133200 18.517700 -28.814900 4.796100 7.923200 14.113500 32.060300 0.000000 0.000000 0.000000 -7.125000 0.000000 0.000000 -13.418200 -1.557100 -14.168100 -0.000000 0.000000 0.000000 -10.377200 15.792400 64.211800 -16.740700 -26.514700 -3.970900 -10.711300 25.653100 51.950200 0.000000 0.000000 0.000000 7.125000 0.000000 -0.000000 63.596400 74.892900 -48.894600
8.019213 14.683491 42.243791 175.183815 -2.015727 170.882130 0.000000 0.000000 0.000000 -36.106728 -6.906302 1.098376 2.859425 10.463934 30.492431 2.344811 3.929549 -30.534239 0.629101 -5.075307 -14.123440 0.000000 0.000000 0.000000 13.817454 6.504424 -2.861927 -5.184605 -13.588694 41.614086 -2.644021 -7.961998 -34.309083 -0.864424 5.928279 -16.576534 8.029540 4.632818 2.592943 -2.293146 6.379750 -4.876143 -7.299170 2.679073 -5.434674 6.156854 16.137808 -3.859081 3.750752 17.645162 41.337502 2.498134 7.181997 15.414914 0.000000 0.000000 0.000000 4.609521 20.678673 -18.684186 18.641799 -28.971095 4.856153 9.860278 13.060555 32.046988 0.000000 0.000000 0.000000 -7.125000 0.000000 0.000000 -12.335166 -1.794934 -13.017105 0.000000 0.000000 0.000000 -10.252579 16.029062 62.774133 -17.082417 -26.966221 -4.124627 -13.765865 27.062856 51.342441 0.000000 0.000000 0.000000 7.125000 0.000000 0.000000 59.664895 75.834051 -46.407437
8.015243 14.691788 42.242841 175.178022 -2.651532 170.841611 0.000000 0.000000 0.000000 -36.191421 -7.120666 1.375917 2.835788 10.424381 30.362343 2.346430 3.739028 -30.458339 0.623833 -5.054211 -14.063234 0.000000 0.000000 0.000000 13.930590 6.499782 -2.516880 -5.154748 -13.555966 41.486899 -2.651209 -8.416814 -34.604336 -0.838442 5.840985 -16.323863 7.972560 4.689794 2.407519 -2.481036 6.432662 -4.684540 -7.436872 2.734691 -5.099242 6.352896 16.020248 -4.167294 3.567746 17.584548 41.083939 2.417420 7.208992 15.407276 0.000000 0.000000 0.000000 4.998924 20.042626 -19.236289 18.868348 -29.254764 4.966346 10.668114 11.706174 32.561142 0.000000 0.000000 0.000000 -7.125000 0.000000 0.000000 -11.920897 -2.409657 -12.684720 0.000000 0.000000 0.000000 -9.555317 15.926678 60.795009 -17.175000 -27.087937 -4.166725 -10.174955 22.913934 51.217593 0.000000 0.000000 0.000000 7.125000 0.000000 0.000000 61.367639 74.402221 -46.412705
8.003900 14.685163 42.261541 175.196192 -3.053890 170.562886 0.000000 0.000000 0.000000 -36.329307 -7.282146 1.673601 2.835442 10.423790 30.360327 2.329172 3.659613 -30.317706 0.656452 -5.179570 -14.421984 0.000000 0.000000 0.000000 13.962788 6.266412 -2.267187 -5.155943 -13.557262 41.492034 -2.617294 -8.984013 -34.746323 -0.920914 6.110649 -17.106834 8.288297 4.689990 2.935104 -2.673742 6.496210 -4.631523 -7.872561 2.744527 -5.281644 6.296989 15.974690 -4.367962 3.797081 17.463504 41.095655 2.519802 7.192567 15.416162 0.000000 0.000000 0.000000 5.242100 19.919807 -19.614996 19.044886 -29.473755 5.053248 10.303162 11.671371 32.431312 0.000000 0.000000 0.000000 -7.125000 0.000000 0.000000 -12.114054 -2.231761 -12.864071 0.000000 0.000000 0.000000 -8.994748 16.147447 58.626762 -17.281389 -27.227162 -4.215328 -10.163738 21.707482 50.931901 0.000000 0.000000 0.000000 7.125000 0.000000 0.000000 60.454184 74.286502 -45.482970
7.997245 14.677209 42.267255 174.945918 -2.983895 170.521748 0.000000 0.000000 0.000000 -36.586199 -7.057683 1.633967 2.834570 10.422340 30.355488 2.342867 3.694489 -30.416692 0.716976 -5.410340 -15.082919 0.000000 0.000000 0.000000 13.788467 6.613970 -2.233784 -5.210146 -13.616593 41.722696 -2.627032 -9.313245 -34.993319 -1.067533 6.568147 -18.442249 8.084518 4.797444 2.832718 -2.692307 6.621262 -4.471445 -7.759794 2.838363 -5.046023 6.138350 16.015073 -4.558352 3.890418 17.540575 41.156710 2.612312 7.219942 15.454227 0.000000 0.000000 0.000000 5.113107 20.008647 -20.326985 19.509617 -30.046987 5.283587 10.404363 10.327871 32.120445 0.000000 0.000000 0.000000 -7.125000 0.000000 0.000000 -12.035856 -1.941186 -12.716664 0.000000 0.000000 0.000000 -8.958557 15.935037 57.179665 -17.518429 -27.536127 -4.324260 -9.635527 18.915153 50.756369 0.000000 0.000000 0.000000 7.125000 0.000000 0.000000 60.235386 74.016591 -45.002424
7.990066 14.669304 42.269519 174.979639 -2.872741 170.312982 0.000000 0.000000 0.000000 -36.539598 -6.714553 1.689079 2.835997 10.424677 30.363210 2.330884 3.780540 -30.382627 0.766156 -5.589483 -15.597753 0.000000 0.000000 0.000000 13.947634 6.897003 -1.940778 -5.222124 -13.629653 41.773746 -2.583494 -9.875222 -35.098975 -0.982987 6.310741 -17.688733 8.116371 4.736655 2.910402 -2.470771 6.562597 -4.455555 -7.548159 2.810816 -5.106941 5.930212 16.118624 -4.189169 3.811022 17.755060 41.096809 2.594234 7.267252 15.323442 0.000000 0.000000 0.000000 4.509932 20.361710 -19.981723 19.627817 -30.191339 5.342890 10.415890 9.419952 32.312625 0.000000 0.000000 0.000000 -7.125000 0.000000 0.000000 -12.043089 -2.130769 -12.763744 0.000000 0.000000 0.000000 -9.278879 15.959757 56.461290 -17.562101 -27.592797 -4.344528 -9.880915 17.807673 50.572759 0.000000 0.000000 0.000000 7.125000 0.000000 0.000000 59.485690 74.029569 -44.368048
7.986449 14.675530 42.269986 174.934184 -2.921119 170.516841 0.000000 0.000000 0.000000 -36.511044 -6.669191 1.493211 2.822122 10.401306 30.286338 2.343301 3.455653 -30.314021 0.703395 -5.360407 -14.939538 0.000000 0.000000 0.000000 13.918405 7.037126 -2.096678 -5.229272 -13.637462 41.804124 -2.647059 -9.719896 -35.345366 -0.892243 6.020695 -16.844574 7.960473 4.738419 2.679068 -2.468599 6.531038 -4.507596 -7.436509 2.800174 -5.051043 6.102504 16.010503 -4.219254 3.562538 17.659547 41.011176 2.460651 7.223765 15.345908 0.000000 0.000000 0.000000 4.531716 20.630027 -20.187826 19.730201 -30.315819 5.394573 9.813267 8.704540 32.742051 0.000000 0.000000 0.000000 -7.125000 0.000000 0.000000 -12.408928 -2.467668 -13.241827 0.000000 0.000000 0.000000 -9.200110 15.816092 55.588241 -17.486364 -27.494495 -4.309474 -10.003536 17.516701 50.203907 0.000000 0.000000 0.000000 7.125000 0.000000 0.000000 58.232368 73.910983 -43.168244
7.978909 14.673421 42.264196 174.936693 -2.824808 170.302262 0.000000 0.000000 0.000000 -36.609905 -6.579612 1.798515 2.798767 10.361886 30.156767 2.337699 3.765705 -30.416868 0.814826 -5.760072 -16.089835 0.000000 0.000000 0.000000 13.973256 7.114202 -1.819522 -5.237509 -13.646340 41.838901 -2.654929 -9.715450 -35.384288 -0.915726 6.096424 -17.064675 7.938844 4.712806 2.728629 -2.387056 6.506069 -4.461648 -7.339580 2.793840 -5.046381 6.225121 15.868562 -3.924175 3.205754 17.585524 40.593673 2.244009 7.198369 15.135365 0.000000 0.000000 0.000000 4.472706 21.018439 -20.450900 19.730990 -30.316818 5.394949 8.592481 8.458403 32.510464 0.000000 0.000000 0.000000 -7.125000 0.000000 0.000000 -13.072082 -2.079162 -13.899344 0.000000 0.000000 0.000000 -9.165283 15.863070 54.795646 -17.526726 -27.546950 -4.328191 -9.264659 16.884776 50.610685 0.000000 0.000000 0.000000 7.125000 0.000000 0.000000 60.018149 73.816357 -44.600265
7.973917 14.670319 42.266013 174.757012 -2.761712 170.323110 0.000000 0.000000 0.000000 -36.828785 -6.541979 1.850968 2.776705 10.324385 30.033811 2.330043 3.912330 -30.436127 0.849114 -5.877128 -16.428298 0.000000 0.000000 0.000000 13.762717 7.218281 -1.888522 -5.257346 -13.667807 41.922766 -2.627221 -9.942314 -35.373648 -0.978390 6.296506 -17.647258 7.744615 4.669736 2.664921 -2.381601 6.430258 -4.462644 -7.216658 2.763435 -5.043775 6.165009 15.889690 -3.951454 3.310423 17.616654 40.463834 2.293667 7.234949 15.053310 0.000000 0.000000 0.000000 4.516710 21.384175 -20.598477 19.683849 -30.259541 5.371155 5.817845 9.814255 32.089722 0.000000 0.000000 0.000000 -7.125000 0.000000 0.000000 -14.591343 -1.341885 -15.432280 0.000000 0.000000 0.000000 -9.279325 15.710962 54.841964 -17.573358 -27.607450 -4.349713 -6.470502 13.795740 52.089176 0.000000 0.000000 0.000000 7.125000 0.000000 0.000000 66.406851 73.360092 -49.718566
7.970144 14.675874 42.263140 174.821322 -2.802103 170.382270 0.000000 0.000000 0.000000 -36.787615 -6.667327 1.875582 2.769788 10.312681 29.995439 2.362726 3.820250 -30.593672 0.944631 -6.190007 -17.336678 0.000000 0.000000 0.000000 13.863834 7.359592 -1.822799 -5.247687 -13.657401 41.881892 -2.638595 -10.107470 -35.535785 -0.859740 5.912993 -16.532198 7.713412 4.610388 2.480813 -2.348222 6.334316 -4.438933 -7.140869 2.724000 -4.936954 6.235481 15.821752 -4.113623 3.248577 17.576562 40.214175 2.260861 7.252834 14.981847 0.000000 0.000000 0.000000 4.530476 21.605936 -20.632138 19.688748 -30.265491 5.373574 6.021812 9.695275 32.102967 0.000000 0.000000 0.000000 -7.125000 0.000000 0.000000 -14.477717 -1.374455 -15.313555 0.000000 0.000000 0.000000 -9.353589 15.651500 54.945544 -17.726148 -27.805161 -4.420731 -5.681376 11.994514 53.662054 0.000000 0.000000 0.000000 7.125000 0.000000 0.000000 71.897499 73.555673 -54.956384
